# Blender v2.90.1 OBJ File: 'allstars.blend'
# www.blender.org
mtllib dobro-vint-l.mtl
o Cube.022_Cube.026
v -0.127111 0.366751 0.056672
v -0.168092 0.236722 0.054517
v -0.127111 0.366751 -0.056672
v -0.168092 0.236722 -0.054517
v -0.005616 0.077132 0.049800
v -0.057004 0.055740 0.049800
v -0.005616 0.077132 -0.049800
v -0.057004 0.055740 -0.049800
v -0.470096 0.550860 0.045483
v -0.422217 0.368807 0.050625
v -0.470096 0.550860 -0.045483
v -0.422217 0.368807 -0.050625
v -1.229556 0.213566 0.052804
v -1.096604 0.155504 0.051722
v -1.229556 0.213566 -0.052804
v -1.096604 0.155504 -0.051722
v -1.316730 -0.151099 0.030924
v -1.212421 -0.139550 0.026366
v -1.316730 -0.151099 -0.030924
v -1.212421 -0.139550 -0.026366
v -1.225971 -0.437314 0.017422
v -1.189273 -0.416863 0.018198
v -1.225971 -0.437314 -0.017423
v -1.189273 -0.416863 -0.018199
v -0.857684 0.371439 0.042791
v -0.955587 0.492938 0.023935
v -0.857684 0.371439 -0.042791
v -0.955587 0.492938 -0.023935
v -0.381171 0.073295 0.056672
v -0.289054 -0.027210 0.054517
v -0.381171 0.073295 -0.056672
v -0.289054 -0.027210 -0.054517
v -0.069606 0.033702 0.049800
v -0.076774 -0.021497 0.049800
v -0.069606 0.033702 -0.049800
v -0.076775 -0.021497 -0.049800
v -0.712107 -0.131685 0.045483
v -0.530505 -0.181247 0.050625
v -0.712107 -0.131685 -0.045483
v -0.530505 -0.181247 -0.050625
v -0.799731 -0.958043 0.052804
v -0.682973 -0.871935 0.051721
v -0.799731 -0.958043 -0.052805
v -0.682973 -0.871935 -0.051722
v -0.527509 -1.215871 0.030924
v -0.485357 -1.119762 0.026366
v -0.527509 -1.215871 -0.030924
v -0.485357 -1.119762 -0.026366
v -0.234260 -1.280379 0.017422
v -0.233623 -1.238371 0.018198
v -0.234260 -1.280379 -0.017423
v -0.233623 -1.238372 -0.018199
v -0.750517 -0.557056 0.042791
v -0.904690 -0.581093 0.023935
v -0.750517 -0.557056 -0.042791
v -0.904690 -0.581093 -0.023935
v 0.381171 -0.073295 0.056672
v 0.289053 0.027210 0.054517
v 0.381171 -0.073295 -0.056672
v 0.289053 0.027210 -0.054517
v 0.069606 -0.033703 0.049800
v 0.076774 0.021497 0.049800
v 0.069606 -0.033703 -0.049800
v 0.076774 0.021497 -0.049800
v 0.712106 0.131685 0.045483
v 0.530505 0.181247 0.050625
v 0.712106 0.131685 -0.045483
v 0.530505 0.181247 -0.050625
v 0.799731 0.958043 0.052804
v 0.682973 0.871935 0.051722
v 0.799731 0.958043 -0.052804
v 0.682973 0.871935 -0.051722
v 0.527509 1.215871 0.030924
v 0.485357 1.119762 0.026366
v 0.527509 1.215871 -0.030924
v 0.485357 1.119762 -0.026366
v 0.234260 1.280379 0.017422
v 0.233623 1.238372 0.018198
v 0.234260 1.280379 -0.017423
v 0.233623 1.238372 -0.018199
v 0.750517 0.557056 0.042791
v 0.904690 0.581093 0.023935
v 0.750517 0.557056 -0.042791
v 0.904690 0.581093 -0.023935
v 0.254060 0.293457 0.056672
v 0.120962 0.263932 0.054517
v 0.254060 0.293457 -0.056672
v 0.120962 0.263933 -0.054517
v 0.063990 0.043429 0.049800
v 0.019770 0.077237 0.049800
v 0.063990 0.043429 -0.049800
v 0.019770 0.077237 -0.049800
v 0.242011 0.682545 0.045483
v 0.108288 0.550054 0.050625
v 0.242011 0.682545 -0.045483
v 0.108288 0.550054 -0.050625
v -0.429824 1.171609 0.052804
v -0.413631 1.027439 0.051722
v -0.429824 1.171609 -0.052804
v -0.413631 1.027439 -0.051722
v -0.789221 1.064772 0.030924
v -0.727064 0.980212 0.026366
v -0.789220 1.064772 -0.030924
v -0.727064 0.980212 -0.026366
v -0.991711 0.843065 0.017422
v -0.955650 0.821509 0.018198
v -0.991711 0.843065 -0.017423
v -0.955650 0.821509 -0.018199
v -0.107166 0.928495 0.042791
v -0.050896 1.074031 0.023935
v -0.107166 0.928495 -0.042791
v -0.050896 1.074031 -0.023935
v 0.381171 -0.073295 0.056672
v 0.289053 0.027210 0.054517
v 0.381171 -0.073295 -0.056672
v 0.289053 0.027210 -0.054517
v 0.069606 -0.033703 0.049800
v 0.076774 0.021496 0.049800
v 0.069606 -0.033703 -0.049800
v 0.076774 0.021496 -0.049800
v 0.712106 0.131685 0.045483
v 0.530504 0.181247 0.050625
v 0.712106 0.131685 -0.045483
v 0.530504 0.181247 -0.050625
v 0.799731 0.958044 0.052805
v 0.682972 0.871935 0.051722
v 0.799731 0.958043 -0.052804
v 0.682972 0.871935 -0.051722
v 0.527508 1.215871 0.030924
v 0.485356 1.119762 0.026366
v 0.527509 1.215871 -0.030924
v 0.485356 1.119762 -0.026366
v 0.234260 1.280379 0.017422
v 0.233622 1.238372 0.018198
v 0.234260 1.280379 -0.017423
v 0.233622 1.238372 -0.018199
v 0.750517 0.557056 0.042791
v 0.904690 0.581093 0.023935
v 0.750517 0.557056 -0.042791
v 0.904690 0.581093 -0.023935
v 0.254060 0.293456 0.056672
v 0.120962 0.263932 0.054517
v 0.254060 0.293457 -0.056672
v 0.120962 0.263932 -0.054517
v 0.063990 0.043429 0.049800
v 0.019770 0.077236 0.049800
v 0.063990 0.043429 -0.049800
v 0.019770 0.077237 -0.049800
v 0.242011 0.682544 0.045483
v 0.108287 0.550054 0.050625
v 0.242011 0.682544 -0.045483
v 0.108287 0.550054 -0.050625
v -0.429825 1.171609 0.052804
v -0.413632 1.027439 0.051722
v -0.429825 1.171609 -0.052804
v -0.413632 1.027439 -0.051721
v -0.789221 1.064771 0.030924
v -0.727065 0.980211 0.026366
v -0.789221 1.064771 -0.030924
v -0.727065 0.980212 -0.026366
v -0.991711 0.843064 0.017422
v -0.955651 0.821509 0.018198
v -0.991711 0.843064 -0.017423
v -0.955651 0.821509 -0.018199
v -0.107167 0.928495 0.042791
v -0.050897 1.074031 0.023935
v -0.107167 0.928495 -0.042791
v -0.050897 1.074031 -0.023935
v -0.254061 -0.293457 0.056672
v -0.120962 -0.263933 0.054517
v -0.254061 -0.293457 -0.056672
v -0.120962 -0.263933 -0.054517
v -0.063991 -0.043430 0.049800
v -0.019771 -0.077237 0.049800
v -0.063991 -0.043430 -0.049800
v -0.019771 -0.077237 -0.049800
v -0.242011 -0.682545 0.045483
v -0.108288 -0.550055 0.050625
v -0.242011 -0.682545 -0.045483
v -0.108288 -0.550055 -0.050625
v 0.429824 -1.171610 0.052804
v 0.413631 -1.027440 0.051721
v 0.429824 -1.171610 -0.052804
v 0.413631 -1.027440 -0.051722
v 0.789220 -1.064772 0.030924
v 0.727064 -0.980213 0.026366
v 0.789220 -1.064772 -0.030924
v 0.727064 -0.980213 -0.026366
v 0.991710 -0.843065 0.017422
v 0.955650 -0.821510 0.018198
v 0.991710 -0.843065 -0.017423
v 0.955650 -0.821510 -0.018199
v 0.107166 -0.928496 0.042791
v 0.050896 -1.074032 0.023935
v 0.107166 -0.928496 -0.042791
v 0.050896 -1.074032 -0.023935
v 0.127110 -0.366752 0.056672
v 0.168091 -0.236723 0.054517
v 0.127110 -0.366751 -0.056672
v 0.168091 -0.236723 -0.054517
v 0.005615 -0.077132 0.049800
v 0.057003 -0.055740 0.049800
v 0.005616 -0.077132 -0.049800
v 0.057003 -0.055740 -0.049800
v 0.470095 -0.550860 0.045483
v 0.422217 -0.368807 0.050625
v 0.470095 -0.550860 -0.045483
v 0.422217 -0.368807 -0.050625
v 1.229555 -0.213566 0.052804
v 1.096604 -0.155505 0.051722
v 1.229555 -0.213566 -0.052804
v 1.096604 -0.155505 -0.051722
v 1.316729 0.151099 0.030924
v 1.212420 0.139550 0.026366
v 1.316729 0.151099 -0.030924
v 1.212420 0.139550 -0.026366
v 1.225971 0.437314 0.017422
v 1.189272 0.416862 0.018198
v 1.225971 0.437314 -0.017423
v 1.189272 0.416862 -0.018199
v 0.857683 -0.371439 0.042791
v 0.955586 -0.492939 0.023935
v 0.857683 -0.371439 -0.042791
v 0.955586 -0.492939 -0.023935
vt 0.223680 0.287960
vt 0.180808 0.310243
vt 0.180808 0.310243
vt 0.223680 0.287960
vt 0.230594 0.309896
vt 0.251090 0.261036
vt 0.242421 0.257428
vt 0.251090 0.261036
vt 0.242421 0.257428
vt 0.230594 0.309896
vt 0.090827 0.331184
vt 0.044607 0.284053
vt 0.067037 0.274258
vt 0.107343 0.310687
vt 0.172731 0.340956
vt 0.172731 0.340956
vt 0.047498 0.224481
vt 0.047498 0.224482
vt 0.067037 0.274258
vt 0.107343 0.310687
vt 0.090827 0.331184
vt 0.044607 0.284053
vt 0.051403 0.177698
vt 0.045212 0.174248
vt 0.029901 0.222533
vt 0.029901 0.222533
vt 0.045212 0.174248
vt 0.051403 0.177698
vt 0.203273 0.243434
vt 0.162540 0.217447
vt 0.162540 0.217447
vt 0.203273 0.243434
vt 0.187733 0.260389
vt 0.240295 0.253710
vt 0.239085 0.244397
vt 0.240295 0.253710
vt 0.239085 0.244397
vt 0.187733 0.260389
vt 0.099413 0.149992
vt 0.117120 0.086399
vt 0.136818 0.100926
vt 0.125423 0.154047
vt 0.131903 0.225808
vt 0.131903 0.225808
vt 0.170156 0.059116
vt 0.170156 0.059116
vt 0.136818 0.100926
vt 0.125423 0.154047
vt 0.099413 0.149992
vt 0.117120 0.086399
vt 0.212625 0.039107
vt 0.212517 0.032020
vt 0.163045 0.042902
vt 0.163045 0.042902
vt 0.212517 0.032020
vt 0.212625 0.039107
vt 0.300802 0.252614
vt 0.341536 0.278601
vt 0.341535 0.278601
vt 0.300802 0.252614
vt 0.316342 0.235659
vt 0.263780 0.242338
vt 0.264990 0.251651
vt 0.263780 0.242338
vt 0.264990 0.251651
vt 0.316342 0.235659
vt 0.404662 0.346056
vt 0.386955 0.409649
vt 0.367257 0.395122
vt 0.378652 0.342001
vt 0.372172 0.270240
vt 0.372172 0.270240
vt 0.333919 0.436932
vt 0.333919 0.436932
vt 0.367257 0.395122
vt 0.378652 0.342001
vt 0.404662 0.346056
vt 0.386955 0.409649
vt 0.291451 0.456942
vt 0.291558 0.464028
vt 0.341030 0.453145
vt 0.341030 0.453145
vt 0.291558 0.464028
vt 0.291451 0.456942
vt 0.272444 0.292550
vt 0.270306 0.340820
vt 0.270306 0.340820
vt 0.272444 0.292550
vt 0.294898 0.297531
vt 0.262833 0.255351
vt 0.255373 0.261054
vt 0.262833 0.255351
vt 0.255373 0.261054
vt 0.294898 0.297531
vt 0.243451 0.429217
vt 0.179525 0.445678
vt 0.182257 0.421356
vt 0.233958 0.404664
vt 0.292866 0.363172
vt 0.292866 0.363172
vt 0.129379 0.413389
vt 0.129379 0.413389
vt 0.182257 0.421356
vt 0.233958 0.404664
vt 0.243451 0.429217
vt 0.179525 0.445678
vt 0.090816 0.386615
vt 0.084733 0.390252
vt 0.118893 0.427655
vt 0.118893 0.427655
vt 0.084733 0.390252
vt 0.090816 0.386615
vt 0.300802 0.252614
vt 0.341535 0.278601
vt 0.341535 0.278601
vt 0.300802 0.252614
vt 0.316342 0.235659
vt 0.263780 0.242338
vt 0.264990 0.251651
vt 0.263780 0.242338
vt 0.264990 0.251651
vt 0.316342 0.235659
vt 0.404662 0.346056
vt 0.386955 0.409649
vt 0.367257 0.395122
vt 0.378652 0.342001
vt 0.372172 0.270240
vt 0.372172 0.270240
vt 0.333919 0.436932
vt 0.333919 0.436932
vt 0.367257 0.395122
vt 0.378652 0.342001
vt 0.404662 0.346056
vt 0.386955 0.409649
vt 0.291450 0.456941
vt 0.291558 0.464028
vt 0.341030 0.453145
vt 0.341030 0.453145
vt 0.291558 0.464028
vt 0.291450 0.456942
vt 0.272444 0.292550
vt 0.270306 0.340820
vt 0.270306 0.340820
vt 0.272444 0.292550
vt 0.294898 0.297531
vt 0.262833 0.255351
vt 0.255373 0.261054
vt 0.262833 0.255351
vt 0.255373 0.261054
vt 0.294898 0.297531
vt 0.243451 0.429217
vt 0.179525 0.445678
vt 0.182256 0.421356
vt 0.233958 0.404664
vt 0.292866 0.363172
vt 0.292866 0.363172
vt 0.129379 0.413389
vt 0.129379 0.413389
vt 0.182257 0.421356
vt 0.233958 0.404664
vt 0.243451 0.429217
vt 0.179525 0.445678
vt 0.090816 0.386615
vt 0.084733 0.390252
vt 0.118893 0.427655
vt 0.118893 0.427654
vt 0.084733 0.390252
vt 0.090816 0.386615
vt 0.231631 0.203498
vt 0.233769 0.155228
vt 0.233769 0.155228
vt 0.231631 0.203498
vt 0.209177 0.198517
vt 0.241242 0.240697
vt 0.248702 0.234994
vt 0.241242 0.240697
vt 0.248702 0.234994
vt 0.209177 0.198517
vt 0.260624 0.066831
vt 0.324550 0.050369
vt 0.321819 0.074691
vt 0.270117 0.091384
vt 0.211209 0.132876
vt 0.211209 0.132876
vt 0.374696 0.082659
vt 0.374696 0.082659
vt 0.321819 0.074691
vt 0.270117 0.091384
vt 0.260624 0.066831
vt 0.324550 0.050369
vt 0.413259 0.109433
vt 0.419342 0.105796
vt 0.385182 0.068393
vt 0.385182 0.068393
vt 0.419342 0.105796
vt 0.413259 0.109433
vt 0.280395 0.208088
vt 0.323267 0.185805
vt 0.323267 0.185805
vt 0.280395 0.208088
vt 0.273481 0.186152
vt 0.252985 0.235012
vt 0.261654 0.238620
vt 0.252985 0.235012
vt 0.261654 0.238620
vt 0.273481 0.186152
vt 0.413248 0.164864
vt 0.459468 0.211995
vt 0.437038 0.221790
vt 0.396732 0.185361
vt 0.331344 0.155092
vt 0.331344 0.155092
vt 0.456577 0.271566
vt 0.456577 0.271566
vt 0.437038 0.221790
vt 0.396732 0.185361
vt 0.413248 0.164864
vt 0.459468 0.211995
vt 0.452672 0.318350
vt 0.458863 0.321800
vt 0.474174 0.273515
vt 0.474174 0.273515
vt 0.458863 0.321800
vt 0.452672 0.318350
vn -0.4612 -0.8873 -0.0000
vn 0.0094 -0.0200 -0.9998
vn 0.3843 -0.9232 -0.0000
vn 0.0094 -0.0200 0.9998
vn 0.9221 0.3868 0.0000
vn -0.8523 -0.5231 -0.0000
vn -0.0097 0.0861 0.9962
vn 0.4730 0.8811 0.0000
vn -0.0204 0.0091 -0.9997
vn -0.0204 0.0091 0.9997
vn 0.9309 -0.3654 0.0000
vn 0.6705 -0.7419 0.0000
vn -0.7140 0.7002 0.0000
vn -0.0097 0.0861 -0.9962
vn 0.0340 -0.0315 -0.9989
vn -0.9726 0.2325 0.0000
vn 0.0092 -0.0742 -0.9972
vn 0.0092 -0.0742 0.9972
vn 0.4868 -0.8735 0.0000
vn 0.0340 -0.0315 0.9989
vn 0.9965 0.0832 0.0000
vn -0.9532 -0.3023 -0.0000
vn -0.0355 0.0618 -0.9975
vn -0.1185 0.9930 0.0000
vn -0.0060 -1.0000 -0.0000
vn -0.0355 0.0618 0.9975
vn 0.5378 -0.8431 -0.0000
vn 0.0220 -0.0018 -0.9998
vn 0.9917 -0.1288 -0.0000
vn 0.0220 -0.0018 0.9998
vn 0.1261 0.9920 0.0000
vn 0.0269 -0.9996 0.0000
vn -0.0794 0.0346 0.9962
vn -0.5266 0.8501 0.0000
vn -0.0181 -0.0131 -0.9997
vn -0.0181 -0.0131 0.9997
vn 0.7819 0.6235 -0.0000
vn 0.9778 0.2097 -0.0000
vn -0.9634 -0.2682 0.0000
vn -0.0794 0.0346 -0.9962
vn 0.0443 0.0136 -0.9989
vn -0.6877 -0.7260 0.0000
vn 0.0689 -0.0292 -0.9972
vn 0.0689 -0.0292 0.9972
vn 0.9999 -0.0152 -0.0000
vn 0.0443 0.0136 0.9989
vn 0.4262 0.9046 -0.0000
vn -0.2148 -0.9766 0.0000
vn -0.0713 0.0001 -0.9975
vn -0.9192 0.3939 0.0000
vn 0.8630 -0.5052 -0.0000
vn -0.0713 0.0001 0.9975
vn -0.5378 0.8431 0.0000
vn -0.0220 0.0018 -0.9998
vn -0.9917 0.1288 -0.0000
vn -0.0220 0.0018 0.9998
vn -0.1261 -0.9920 -0.0000
vn -0.0269 0.9996 0.0000
vn 0.0794 -0.0346 0.9962
vn 0.5266 -0.8501 -0.0000
vn 0.0181 0.0131 -0.9997
vn 0.0181 0.0131 0.9997
vn -0.7819 -0.6235 -0.0000
vn -0.9778 -0.2097 -0.0000
vn 0.9634 0.2682 0.0000
vn 0.0794 -0.0346 -0.9962
vn -0.0443 -0.0136 -0.9989
vn 0.6877 0.7260 0.0000
vn -0.0689 0.0292 -0.9972
vn -0.0689 0.0292 0.9972
vn -0.9999 0.0152 -0.0000
vn -0.0443 -0.0136 0.9989
vn -0.4262 -0.9046 -0.0000
vn 0.2148 0.9766 -0.0000
vn 0.0713 -0.0001 -0.9975
vn 0.9192 -0.3939 0.0000
vn -0.8630 0.5052 0.0000
vn 0.0713 -0.0001 0.9975
vn -0.9990 -0.0443 0.0000
vn -0.0126 -0.0181 -0.9998
vn -0.6074 -0.7944 -0.0000
vn -0.0126 -0.0181 0.9998
vn 0.7961 -0.6052 -0.0000
vn -0.8792 0.4765 0.0000
vn 0.0697 0.0515 0.9962
vn 0.9995 0.0310 -0.0000
vn -0.0023 0.0222 -0.9997
vn -0.0023 0.0222 0.9997
vn 0.1490 -0.9888 -0.0000
vn -0.3072 -0.9516 0.0000
vn 0.2494 0.9684 0.0000
vn 0.0697 0.0515 -0.9962
vn -0.0103 -0.0452 -0.9989
vn -0.2849 0.9585 -0.0000
vn -0.0597 -0.0450 -0.9972
vn -0.0597 -0.0450 0.9972
vn -0.5131 -0.8583 -0.0000
vn -0.0103 -0.0452 0.9989
vn 0.5703 -0.8214 0.0000
vn -0.7384 0.6744 -0.0000
vn 0.0357 0.0617 -0.9975
vn 0.8007 0.5991 0.0000
vn -0.8690 -0.4948 0.0000
vn 0.0357 0.0617 0.9975
vn -0.5378 0.8430 -0.0000
vn 0.9990 0.0443 -0.0000
vn 0.0126 0.0181 -0.9998
vn 0.6074 0.7944 0.0000
vn 0.0126 0.0181 0.9998
vn -0.7961 0.6052 -0.0000
vn 0.8792 -0.4765 -0.0000
vn -0.0697 -0.0515 0.9962
vn -0.9995 -0.0310 0.0000
vn 0.0023 -0.0222 -0.9997
vn 0.0023 -0.0222 0.9997
vn -0.1490 0.9888 -0.0000
vn 0.3072 0.9516 0.0000
vn -0.2494 -0.9684 0.0000
vn -0.0697 -0.0515 -0.9962
vn 0.0103 0.0452 -0.9989
vn 0.2849 -0.9585 0.0000
vn 0.0597 0.0450 -0.9972
vn 0.0597 0.0450 0.9972
vn 0.5131 0.8583 -0.0000
vn 0.0103 0.0452 0.9989
vn -0.5703 0.8214 -0.0000
vn 0.7384 -0.6744 0.0000
vn -0.0357 -0.0617 -0.9975
vn -0.8007 -0.5991 0.0000
vn 0.8690 0.4948 -0.0000
vn -0.0357 -0.0617 0.9975
vn 0.4612 0.8873 0.0000
vn -0.0094 0.0200 -0.9998
vn -0.3843 0.9232 -0.0000
vn -0.0094 0.0200 0.9998
vn -0.9221 -0.3868 -0.0000
vn 0.8523 0.5231 0.0000
vn 0.0097 -0.0861 0.9962
vn -0.4730 -0.8811 -0.0000
vn 0.0204 -0.0091 -0.9997
vn 0.0204 -0.0091 0.9997
vn -0.9309 0.3654 -0.0000
vn -0.6705 0.7419 -0.0000
vn 0.7140 -0.7002 0.0000
vn 0.0097 -0.0861 -0.9962
vn -0.0340 0.0315 -0.9989
vn 0.9726 -0.2325 -0.0000
vn -0.0092 0.0742 -0.9972
vn -0.0092 0.0742 0.9972
vn -0.4868 0.8735 -0.0000
vn -0.0340 0.0315 0.9989
vn -0.9965 -0.0832 -0.0000
vn 0.9532 0.3023 -0.0000
vn 0.0355 -0.0618 -0.9975
vn 0.1185 -0.9930 0.0000
vn 0.0060 1.0000 -0.0000
vn 0.0355 -0.0618 0.9975
usemtl None
s off
f 2/1/1 10/2/1 12/3/1 4/4/1
f 3/5/2 7/6/2 8/7/2 4/4/2
f 7/6/3 5/8/3 6/9/3 8/7/3
f 5/8/4 1/10/4 2/1/4 6/9/4
f 3/5/5 1/10/5 5/8/5 7/6/5
f 8/7/6 6/9/6 2/1/6 4/4/6
f 26/11/7 13/12/7 14/13/7 25/14/7
f 3/5/8 11/15/8 9/16/8 1/10/8
f 4/4/9 12/3/9 11/15/9 3/5/9
f 1/10/10 9/16/10 10/2/10 2/1/10
f 14/13/11 18/17/11 20/18/11 16/19/11
f 25/14/12 14/13/12 16/19/12 27/20/12
f 28/21/13 15/22/13 13/12/13 26/11/13
f 27/20/14 16/19/14 15/22/14 28/21/14
f 20/18/15 24/23/15 23/24/15 19/25/15
f 15/22/16 19/25/16 17/26/16 13/12/16
f 16/19/17 20/18/17 19/25/17 15/22/17
f 13/12/18 17/26/18 18/17/18 14/13/18
f 21/27/19 23/24/19 24/23/19 22/28/19
f 17/26/20 21/27/20 22/28/20 18/17/20
f 18/17/21 22/28/21 24/23/21 20/18/21
f 19/25/22 23/24/22 21/27/22 17/26/22
f 12/3/23 27/20/23 28/21/23 11/15/23
f 11/15/24 28/21/24 26/11/24 9/16/24
f 10/2/25 25/14/25 27/20/25 12/3/25
f 9/16/26 26/11/26 25/14/26 10/2/26
f 30/29/27 38/30/27 40/31/27 32/32/27
f 31/33/28 35/34/28 36/35/28 32/32/28
f 35/34/29 33/36/29 34/37/29 36/35/29
f 33/36/30 29/38/30 30/29/30 34/37/30
f 31/33/31 29/38/31 33/36/31 35/34/31
f 36/35/32 34/37/32 30/29/32 32/32/32
f 54/39/33 41/40/33 42/41/33 53/42/33
f 31/33/34 39/43/34 37/44/34 29/38/34
f 32/32/35 40/31/35 39/43/35 31/33/35
f 29/38/36 37/44/36 38/30/36 30/29/36
f 42/41/37 46/45/37 48/46/37 44/47/37
f 53/42/38 42/41/38 44/47/38 55/48/38
f 56/49/39 43/50/39 41/40/39 54/39/39
f 55/48/40 44/47/40 43/50/40 56/49/40
f 48/46/41 52/51/41 51/52/41 47/53/41
f 43/50/42 47/53/42 45/54/42 41/40/42
f 44/47/43 48/46/43 47/53/43 43/50/43
f 41/40/44 45/54/44 46/45/44 42/41/44
f 49/55/45 51/52/45 52/51/45 50/56/45
f 45/54/46 49/55/46 50/56/46 46/45/46
f 46/45/47 50/56/47 52/51/47 48/46/47
f 47/53/48 51/52/48 49/55/48 45/54/48
f 40/31/49 55/48/49 56/49/49 39/43/49
f 39/43/50 56/49/50 54/39/50 37/44/50
f 38/30/51 53/42/51 55/48/51 40/31/51
f 37/44/52 54/39/52 53/42/52 38/30/52
f 58/57/53 66/58/53 68/59/53 60/60/53
f 59/61/54 63/62/54 64/63/54 60/60/54
f 63/62/55 61/64/55 62/65/55 64/63/55
f 61/64/56 57/66/56 58/57/56 62/65/56
f 59/61/57 57/66/57 61/64/57 63/62/57
f 64/63/58 62/65/58 58/57/58 60/60/58
f 82/67/59 69/68/59 70/69/59 81/70/59
f 59/61/60 67/71/60 65/72/60 57/66/60
f 60/60/61 68/59/61 67/71/61 59/61/61
f 57/66/62 65/72/62 66/58/62 58/57/62
f 70/69/63 74/73/63 76/74/63 72/75/63
f 81/70/64 70/69/64 72/75/64 83/76/64
f 84/77/65 71/78/65 69/68/65 82/67/65
f 83/76/66 72/75/66 71/78/66 84/77/66
f 76/74/67 80/79/67 79/80/67 75/81/67
f 71/78/68 75/81/68 73/82/68 69/68/68
f 72/75/69 76/74/69 75/81/69 71/78/69
f 69/68/70 73/82/70 74/73/70 70/69/70
f 77/83/71 79/80/71 80/79/71 78/84/71
f 73/82/72 77/83/72 78/84/72 74/73/72
f 74/73/73 78/84/73 80/79/73 76/74/73
f 75/81/74 79/80/74 77/83/74 73/82/74
f 68/59/75 83/76/75 84/77/75 67/71/75
f 67/71/76 84/77/76 82/67/76 65/72/76
f 66/58/77 81/70/77 83/76/77 68/59/77
f 65/72/78 82/67/78 81/70/78 66/58/78
f 86/85/79 94/86/79 96/87/79 88/88/79
f 87/89/80 91/90/80 92/91/80 88/88/80
f 91/90/81 89/92/81 90/93/81 92/91/81
f 89/92/82 85/94/82 86/85/82 90/93/82
f 87/89/83 85/94/83 89/92/83 91/90/83
f 92/91/84 90/93/84 86/85/84 88/88/84
f 110/95/85 97/96/85 98/97/85 109/98/85
f 87/89/86 95/99/86 93/100/86 85/94/86
f 88/88/87 96/87/87 95/99/87 87/89/87
f 85/94/88 93/100/88 94/86/88 86/85/88
f 98/97/89 102/101/89 104/102/89 100/103/89
f 109/98/90 98/97/90 100/103/90 111/104/90
f 112/105/91 99/106/91 97/96/91 110/95/91
f 111/104/92 100/103/92 99/106/92 112/105/92
f 104/102/93 108/107/93 107/108/93 103/109/93
f 99/106/94 103/109/94 101/110/94 97/96/94
f 100/103/95 104/102/95 103/109/95 99/106/95
f 97/96/96 101/110/96 102/101/96 98/97/96
f 105/111/97 107/108/97 108/107/97 106/112/97
f 101/110/98 105/111/98 106/112/98 102/101/98
f 102/101/99 106/112/99 108/107/99 104/102/99
f 103/109/100 107/108/100 105/111/100 101/110/100
f 96/87/101 111/104/101 112/105/101 95/99/101
f 95/99/102 112/105/102 110/95/102 93/100/102
f 94/86/103 109/98/103 111/104/103 96/87/103
f 93/100/104 110/95/104 109/98/104 94/86/104
f 114/113/105 122/114/105 124/115/105 116/116/105
f 115/117/54 119/118/54 120/119/54 116/116/54
f 119/118/55 117/120/55 118/121/55 120/119/55
f 117/120/56 113/122/56 114/113/56 118/121/56
f 115/117/57 113/122/57 117/120/57 119/118/57
f 120/119/58 118/121/58 114/113/58 116/116/58
f 138/123/59 125/124/59 126/125/59 137/126/59
f 115/117/60 123/127/60 121/128/60 113/122/60
f 116/116/61 124/115/61 123/127/61 115/117/61
f 113/122/62 121/128/62 122/114/62 114/113/62
f 126/125/63 130/129/63 132/130/63 128/131/63
f 137/126/64 126/125/64 128/131/64 139/132/64
f 140/133/65 127/134/65 125/124/65 138/123/65
f 139/132/66 128/131/66 127/134/66 140/133/66
f 132/130/67 136/135/67 135/136/67 131/137/67
f 127/134/68 131/137/68 129/138/68 125/124/68
f 128/131/69 132/130/69 131/137/69 127/134/69
f 125/124/70 129/138/70 130/129/70 126/125/70
f 133/139/71 135/136/71 136/135/71 134/140/71
f 129/138/72 133/139/72 134/140/72 130/129/72
f 130/129/73 134/140/73 136/135/73 132/130/73
f 131/137/74 135/136/74 133/139/74 129/138/74
f 124/115/75 139/132/75 140/133/75 123/127/75
f 123/127/76 140/133/76 138/123/76 121/128/76
f 122/114/77 137/126/77 139/132/77 124/115/77
f 121/128/78 138/123/78 137/126/78 122/114/78
f 142/141/79 150/142/79 152/143/79 144/144/79
f 143/145/80 147/146/80 148/147/80 144/144/80
f 147/146/81 145/148/81 146/149/81 148/147/81
f 145/148/82 141/150/82 142/141/82 146/149/82
f 143/145/83 141/150/83 145/148/83 147/146/83
f 148/147/84 146/149/84 142/141/84 144/144/84
f 166/151/85 153/152/85 154/153/85 165/154/85
f 143/145/86 151/155/86 149/156/86 141/150/86
f 144/144/87 152/143/87 151/155/87 143/145/87
f 141/150/88 149/156/88 150/142/88 142/141/88
f 154/153/89 158/157/89 160/158/89 156/159/89
f 165/154/90 154/153/90 156/159/90 167/160/90
f 168/161/91 155/162/91 153/152/91 166/151/91
f 167/160/92 156/159/92 155/162/92 168/161/92
f 160/158/93 164/163/93 163/164/93 159/165/93
f 155/162/94 159/165/94 157/166/94 153/152/94
f 156/159/95 160/158/95 159/165/95 155/162/95
f 153/152/96 157/166/96 158/157/96 154/153/96
f 161/167/97 163/164/97 164/163/97 162/168/97
f 157/166/98 161/167/98 162/168/98 158/157/98
f 158/157/99 162/168/99 164/163/99 160/158/99
f 159/165/100 163/164/100 161/167/100 157/166/100
f 152/143/101 167/160/101 168/161/101 151/155/101
f 151/155/102 168/161/102 166/151/102 149/156/102
f 150/142/103 165/154/103 167/160/103 152/143/103
f 149/156/104 166/151/104 165/154/104 150/142/104
f 170/169/106 178/170/106 180/171/106 172/172/106
f 171/173/107 175/174/107 176/175/107 172/172/107
f 175/174/108 173/176/108 174/177/108 176/175/108
f 173/176/109 169/178/109 170/169/109 174/177/109
f 171/173/110 169/178/110 173/176/110 175/174/110
f 176/175/111 174/177/111 170/169/111 172/172/111
f 194/179/112 181/180/112 182/181/112 193/182/112
f 171/173/113 179/183/113 177/184/113 169/178/113
f 172/172/114 180/171/114 179/183/114 171/173/114
f 169/178/115 177/184/115 178/170/115 170/169/115
f 182/181/116 186/185/116 188/186/116 184/187/116
f 193/182/117 182/181/117 184/187/117 195/188/117
f 196/189/118 183/190/118 181/180/118 194/179/118
f 195/188/119 184/187/119 183/190/119 196/189/119
f 188/186/120 192/191/120 191/192/120 187/193/120
f 183/190/121 187/193/121 185/194/121 181/180/121
f 184/187/122 188/186/122 187/193/122 183/190/122
f 181/180/123 185/194/123 186/185/123 182/181/123
f 189/195/124 191/192/124 192/191/124 190/196/124
f 185/194/125 189/195/125 190/196/125 186/185/125
f 186/185/126 190/196/126 192/191/126 188/186/126
f 187/193/127 191/192/127 189/195/127 185/194/127
f 180/171/128 195/188/128 196/189/128 179/183/128
f 179/183/129 196/189/129 194/179/129 177/184/129
f 178/170/130 193/182/130 195/188/130 180/171/130
f 177/184/131 194/179/131 193/182/131 178/170/131
f 198/197/132 206/198/132 208/199/132 200/200/132
f 199/201/133 203/202/133 204/203/133 200/200/133
f 203/202/134 201/204/134 202/205/134 204/203/134
f 201/204/135 197/206/135 198/197/135 202/205/135
f 199/201/136 197/206/136 201/204/136 203/202/136
f 204/203/137 202/205/137 198/197/137 200/200/137
f 222/207/138 209/208/138 210/209/138 221/210/138
f 199/201/139 207/211/139 205/212/139 197/206/139
f 200/200/140 208/199/140 207/211/140 199/201/140
f 197/206/141 205/212/141 206/198/141 198/197/141
f 210/209/142 214/213/142 216/214/142 212/215/142
f 221/210/143 210/209/143 212/215/143 223/216/143
f 224/217/144 211/218/144 209/208/144 222/207/144
f 223/216/145 212/215/145 211/218/145 224/217/145
f 216/214/146 220/219/146 219/220/146 215/221/146
f 211/218/147 215/221/147 213/222/147 209/208/147
f 212/215/148 216/214/148 215/221/148 211/218/148
f 209/208/149 213/222/149 214/213/149 210/209/149
f 217/223/150 219/220/150 220/219/150 218/224/150
f 213/222/151 217/223/151 218/224/151 214/213/151
f 214/213/152 218/224/152 220/219/152 216/214/152
f 215/221/153 219/220/153 217/223/153 213/222/153
f 208/199/154 223/216/154 224/217/154 207/211/154
f 207/211/155 224/217/155 222/207/155 205/212/155
f 206/198/156 221/210/156 223/216/156 208/199/156
f 205/212/157 222/207/157 221/210/157 206/198/157
